<svg width="84.67mm" height="126.6mm" version="1.1" viewBox="0 0 84.67 126.6" xmlns="http://www.w3.org/2000/svg">
 <g transform="translate(-30.24 -19.02)">
  <path d="m33.28 19.44c-1.451 0-2.62 1.168-2.62 2.62v120.5c0 1.451 1.168 2.62 2.62 2.62h78.59c1.451 0 2.62-1.168 2.62-2.62v-120.5c0-1.451-1.168-2.62-2.62-2.62zm39.3 18.84c8.409 0 19.1 2.537 24.61 10.62 5.51 8.08 5.844 22.93 5.844 35.26 0 13.56-4.125 23.25-10.64 31.44-5.326 6.698-12.25 10.75-19.81 10.75-7.031 0-13.51-4.139-18.66-10.76-7.174-9.213-11.79-23.23-11.79-37.58 0-12.33 0.3332-21.03 5.844-29.11 5.51-8.08 16.2-10.62 24.61-10.62z" fill="#4d5456" stroke="#aec834" stroke-width=".8364"/>
 </g>
</svg>
