<svg width="100%" height="100%" version="1.1" viewBox="0 0 84.67 138.3" xmlns="http://www.w3.org/2000/svg" preserveAspectRatio="none">
 <g transform="translate(-3.022 3.471)">
  <g transform="translate(4.66 122.7)">
   <path d="m-1.638-126.1v138.3h84.67v-138.3zm42.33 24.43c8.539 0 19.39 2.577 24.99 10.78 5.596 8.205 5.934 23.29 5.934 35.81 0 13.77-4.189 23.62-10.8 31.93-5.408 6.802-12.44 10.91-20.12 10.91-7.14 0-13.72-4.204-18.95-10.93-7.285-9.356-11.97-23.59-11.97-38.16 0-12.52 0.3386-21.36 5.935-29.56 5.596-8.205 16.45-10.78 24.99-10.78z" fill="#4d5456"/>
   <path d="m71.63-55.09c0 13.77-4.189 23.62-10.8 31.93-5.408 6.802-12.44 10.91-20.12 10.91-7.14 0-13.72-4.204-18.95-10.93-7.285-9.356-11.97-23.59-11.97-38.16 0-12.52 0.3381-21.36 5.934-29.56 5.596-8.205 16.45-10.78 24.99-10.78s19.39 2.577 24.99 10.78c5.596 8.205 5.934 23.29 5.934 35.81z" fill="none" stroke="#aec834"/>
  </g>
 </g>
</svg>
